<mxfile host="app.diagrams.net" modified="2022-07-18T08:30:35.859Z" agent="5.0 (Windows NT 10.0; Win64; x64) AppleWebKit/537.36 (KHTML, like Gecko) Chrome/103.0.5060.114 Safari/537.36" etag="-thNS8Ya4eIMKapMauV7" version="20.1.1" type="github">
  <diagram id="4Yo5bgn12V0r5x9UYzIo" name="Page-1">
    <mxGraphModel dx="1597" dy="-383" grid="1" gridSize="10" guides="1" tooltips="1" connect="1" arrows="1" fold="1" page="1" pageScale="1" pageWidth="827" pageHeight="1169" math="0" shadow="0">
      <root>
        <mxCell id="0" />
        <mxCell id="1" parent="0" />
        <mxCell id="d2sHEpe9VSRd-2LTgFlW-102" value="" style="edgeStyle=orthogonalEdgeStyle;rounded=0;orthogonalLoop=1;jettySize=auto;html=1;" edge="1" parent="1" source="d2sHEpe9VSRd-2LTgFlW-103" target="d2sHEpe9VSRd-2LTgFlW-105">
          <mxGeometry relative="1" as="geometry" />
        </mxCell>
        <mxCell id="d2sHEpe9VSRd-2LTgFlW-103" value="User clicks on a button" style="rounded=1;whiteSpace=wrap;html=1;" vertex="1" parent="1">
          <mxGeometry x="390" y="1170" width="120" height="60" as="geometry" />
        </mxCell>
        <mxCell id="d2sHEpe9VSRd-2LTgFlW-104" value="" style="edgeStyle=orthogonalEdgeStyle;rounded=0;orthogonalLoop=1;jettySize=auto;html=1;" edge="1" parent="1" source="d2sHEpe9VSRd-2LTgFlW-105" target="d2sHEpe9VSRd-2LTgFlW-108">
          <mxGeometry relative="1" as="geometry" />
        </mxCell>
        <mxCell id="d2sHEpe9VSRd-2LTgFlW-105" value="Frontend" style="rounded=1;whiteSpace=wrap;html=1;" vertex="1" parent="1">
          <mxGeometry x="390" y="1310" width="120" height="60" as="geometry" />
        </mxCell>
        <mxCell id="d2sHEpe9VSRd-2LTgFlW-106" value="" style="edgeStyle=orthogonalEdgeStyle;rounded=0;orthogonalLoop=1;jettySize=auto;html=1;" edge="1" parent="1" source="d2sHEpe9VSRd-2LTgFlW-108" target="d2sHEpe9VSRd-2LTgFlW-110">
          <mxGeometry relative="1" as="geometry" />
        </mxCell>
        <mxCell id="d2sHEpe9VSRd-2LTgFlW-115" style="edgeStyle=orthogonalEdgeStyle;rounded=0;orthogonalLoop=1;jettySize=auto;html=1;exitX=1;exitY=0.25;exitDx=0;exitDy=0;entryX=1;entryY=0.5;entryDx=0;entryDy=0;" edge="1" parent="1" source="d2sHEpe9VSRd-2LTgFlW-108" target="d2sHEpe9VSRd-2LTgFlW-105">
          <mxGeometry relative="1" as="geometry" />
        </mxCell>
        <mxCell id="d2sHEpe9VSRd-2LTgFlW-108" value="Backend controller" style="rounded=0;whiteSpace=wrap;html=1;" vertex="1" parent="1">
          <mxGeometry x="390" y="1480" width="120" height="60" as="geometry" />
        </mxCell>
        <mxCell id="d2sHEpe9VSRd-2LTgFlW-109" style="edgeStyle=orthogonalEdgeStyle;rounded=0;orthogonalLoop=1;jettySize=auto;html=1;exitX=1;exitY=0.5;exitDx=0;exitDy=0;entryX=1;entryY=0.5;entryDx=0;entryDy=0;" edge="1" parent="1" source="d2sHEpe9VSRd-2LTgFlW-110" target="d2sHEpe9VSRd-2LTgFlW-108">
          <mxGeometry relative="1" as="geometry" />
        </mxCell>
        <mxCell id="d2sHEpe9VSRd-2LTgFlW-110" value="DB" style="rounded=0;whiteSpace=wrap;html=1;" vertex="1" parent="1">
          <mxGeometry x="390" y="1620" width="120" height="60" as="geometry" />
        </mxCell>
        <mxCell id="d2sHEpe9VSRd-2LTgFlW-111" value="returns data" style="text;html=1;strokeColor=none;fillColor=none;align=center;verticalAlign=middle;whiteSpace=wrap;rounded=0;" vertex="1" parent="1">
          <mxGeometry x="550" y="1560" width="60" height="30" as="geometry" />
        </mxCell>
        <mxCell id="d2sHEpe9VSRd-2LTgFlW-112" value="returns data" style="text;html=1;strokeColor=none;fillColor=none;align=center;verticalAlign=middle;whiteSpace=wrap;rounded=0;" vertex="1" parent="1">
          <mxGeometry x="550" y="1400" width="60" height="30" as="geometry" />
        </mxCell>
        <mxCell id="d2sHEpe9VSRd-2LTgFlW-113" value="send data processed" style="text;html=1;strokeColor=none;fillColor=none;align=center;verticalAlign=middle;whiteSpace=wrap;rounded=0;" vertex="1" parent="1">
          <mxGeometry x="370" y="1400" width="60" height="30" as="geometry" />
        </mxCell>
        <mxCell id="d2sHEpe9VSRd-2LTgFlW-114" value="&lt;div style=&quot;text-align: center;&quot;&gt;&lt;span style=&quot;background-color: initial;&quot;&gt;create sql request with data processed&lt;/span&gt;&lt;/div&gt;" style="text;whiteSpace=wrap;html=1;" vertex="1" parent="1">
          <mxGeometry x="320" y="1550" width="110" height="50" as="geometry" />
        </mxCell>
      </root>
    </mxGraphModel>
  </diagram>
</mxfile>
